<svg xmlns="http://www.w3.org/2000/svg" viewBox="0 0 200 200" role="img" aria-label="Google Calendar"><path fill="#fff" d="M152.6 47.4H47.4v105.2h105.2z"/><path fill="#1a73e8" d="M152.6 200 200 152.6h-47.4z"/><path fill="#ea4335" d="M200 47.4h-47.4v105.2H200z"/><path fill="#34a853" d="M152.6 152.6H47.4V200h105.2z"/><path fill="#188038" d="M0 152.6V184.2C0 192.9 7.1 200 15.8 200h31.6v-47.4z"/><path fill="#fbbc04" d="M200 47.4V15.8C200 7.1 192.9 0 184.2 0h-31.6v47.4z"/><path fill="#4285f4" d="M152.6 0H15.8C7.1 0 0 7.1 0 15.8v136.8h47.4V47.4h105.2z"/><path fill="#4285f4" d="M69 129.04c-3.94-2.66-6.66-6.54-8.15-11.68l9.14-3.77c.83 3.16 2.28 5.61 4.35 7.35 2.06 1.74 4.56 2.6 7.49 2.6 2.99 0 5.56-.91 7.71-2.73s3.23-4.14 3.23-6.95c0-2.88-1.13-5.23-3.4-7.06s-5.12-2.74-8.52-2.74h-5.28v-9.05h4.74c2.93 0 5.39-.79 7.4-2.37 2-1.58 3-3.74 3-6.49 0-2.44-.89-4.39-2.68-5.85s-4.05-2.19-6.8-2.19c-2.68 0-4.81.71-6.39 2.14-1.58 1.43-2.72 3.19-3.44 5.27l-9.05-3.77c1.2-3.4 3.4-6.4 6.63-9 3.23-2.6 7.35-3.9 12.36-3.9 3.7 0 7.04.71 10 2.14 2.96 1.43 5.28 3.41 6.96 5.94 1.68 2.54 2.51 5.38 2.51 8.54 0 3.22-.78 5.95-2.33 8.18-1.55 2.23-3.46 3.94-5.72 5.13v.54c2.9 1.2 5.4 3.14 7.28 5.63 1.9 2.51 2.86 5.51 2.86 9.01s-.89 6.63-2.67 9.37c-1.78 2.75-4.24 4.91-7.36 6.49-3.13 1.58-6.64 2.38-10.55 2.38-4.52.01-8.69-1.32-12.62-3.98zm56.11-45.32-10.03 7.25-5.02-7.61 18-12.98h6.9v61.25h-9.85z"/></svg>