<svg xmlns="http://www.w3.org/2000/svg" viewBox="0 0 24 24" role="img" aria-label="Gmail"><path fill="#4285F4" d="M1.636 20.5h3.819V11.09L0 7v11.864c0 .904.733 1.636 1.636 1.636"/><path fill="#34A853" d="M18.545 20.5h3.819c.904 0 1.636-.732 1.636-1.636V7l-5.455 4.09"/><path fill="#FBBC04" d="M18.545 4v7.09L24 7V4.818c0-2.023-2.309-3.177-3.927-1.963"/><path fill="#EA4335" d="M5.455 11.09V4l6.545 4.91L18.545 4v7.09L12 16"/><path fill="#C5221F" d="M0 4.818V7l5.455 4.09V4L3.927 2.855C2.309 1.641 0 2.795 0 4.818"/></svg>