<svg xmlns="http://www.w3.org/2000/svg" viewBox="0 0 24 24" role="img" aria-label="Notion"><path fill="#fff" d="M4.46 3.38 15.6 2.56c1.37-.12 1.72-.04 2.58.59l3.55 2.5c.59.43.78.55.78 1.02v13.75c0 .86-.31 1.37-1.41 1.45l-12.93.78c-.82.04-1.21-.08-1.64-.63L3.9 18.6c-.47-.63-.66-1.1-.66-1.65V4.75c0-.7.31-1.29 1.22-1.37Z"/><path fill="#000" d="M15.6 2.56 4.46 3.38c-.91.08-1.22.67-1.22 1.37v12.2c0 .55.19 1.02.66 1.65l2.62 3.42c.43.55.82.67 1.64.63l12.93-.78c1.1-.08 1.41-.59 1.41-1.45V6.67c0-.44-.17-.57-.69-.95L18.18 3.15c-.86-.63-1.21-.71-2.58-.59ZM8.52 6.87c-1.06.07-1.3.09-1.9-.4L5.09 5.25c-.15-.16-.07-.35.32-.39l10.71-.78c.9-.08 1.37.23 1.72.5l1.84 1.33c.08.04.27.27.04.27l-11.06.66Zm-1.24 13.3V8.52c0-.51.16-.74.63-.78l12.7-.75c.43-.04.63.24.63.74v11.57c0 .51-.08.94-.79.98l-12.15.7c-.7.04-1.02-.19-1.02-.81Zm12-11.19c.08.35 0 .7-.35.75l-.59.11v8.66c-.51.28-.98.43-1.37.43-.63 0-.79-.19-1.26-.78l-3.86-6.06v5.86l1.22.28s0 .7-.98.7l-2.69.16c-.08-.16 0-.55.27-.63l.7-.19V10.5l-.97-.08c-.08-.35.12-.86.66-.9l2.89-.19 3.98 6.09v-5.39l-1.02-.11c-.08-.43.24-.75.63-.78l2.74-.16Z"/></svg>