<svg xmlns="http://www.w3.org/2000/svg" viewBox="0 0 24 24" role="img" aria-label="OneDrive"><path fill="#0364B8" d="M14.5 15.36 20.79 9.35A6.97 6.97 0 0 0 14.03 4c-2.4 0-4.53 1.21-5.79 3.05z"/><path fill="#0078D4" d="M9.61 6.85A5.57 5.57 0 0 0 5.6 5.14 5.62 5.62 0 0 0 .96 13.9l7.7-3.23z"/><path fill="#1490DF" d="M20.79 9.35c-.27-.03-.55-.05-.83-.05-1.4 0-2.7.42-3.79 1.13l-7.51 2.24 3.86 4.72 8.14 2.11a5.14 5.14 0 0 0 .13-10.15z"/><path fill="#28A8EA" d="M8.66 10.67.96 13.9a5.62 5.62 0 0 0 4.64 2.46h13.06a5.13 5.13 0 0 0 1.99-.87l-4.48-5.06a6.98 6.98 0 0 0-7.51.24z"/></svg>