<svg width="1440" height="900" viewBox="0 0 1440 900" xmlns="http://www.w3.org/2000/svg" font-family="Inter, 'Noto Sans KR', sans-serif">
  <defs>
    <filter id="soft" x="-20%" y="-20%" width="140%" height="140%">
      <feDropShadow dx="0" dy="8" stdDeviation="16" flood-color="#0f172a" flood-opacity="0.06"/>
    </filter>
    <linearGradient id="violet" x1="0" y1="0" x2="1" y2="1">
      <stop offset="0" stop-color="#6d5df6"/><stop offset="1" stop-color="#8b7cff"/>
    </linearGradient>
    <linearGradient id="teamhero" x1="0" y1="0" x2="1" y2="0">
      <stop offset="0" stop-color="#f5f3ff"/><stop offset="1" stop-color="#ffffff"/>
    </linearGradient>
  </defs>

  <rect width="1440" height="900" fill="#ffffff"/>

  <!-- Sidebar -->
  <rect x="0" y="0" width="232" height="900" fill="#ffffff"/>
  <line x1="232" y1="0" x2="232" y2="900" stroke="#eef0f6"/>
  <rect x="20" y="24" width="40" height="40" rx="14" fill="url(#violet)"/>
  <text x="72" y="42" font-size="15" font-weight="800" fill="#111827">DREAMWISH</text>
  <text x="72" y="58" font-size="10" fill="#8a92a6">AI Decision OS</text>
  <circle cx="38" cy="118" r="8" fill="none" stroke="#98a1b3" stroke-width="2"/>
  <text x="58" y="123" font-size="13.5" font-weight="600" fill="#5c6474">AI Chat</text>
  <circle cx="38" cy="166" r="8" fill="none" stroke="#98a1b3" stroke-width="2"/>
  <text x="58" y="171" font-size="13.5" font-weight="600" fill="#5c6474">Memory</text>
  <rect x="14" y="192" width="204" height="44" rx="14" fill="#f2f0ff"/>
  <circle cx="38" cy="214" r="8" fill="none" stroke="#6d5df6" stroke-width="2"/>
  <text x="58" y="219" font-size="13.5" font-weight="700" fill="#6d5df6">Team</text>

  <!-- Hero -->
  <rect x="264" y="36" width="1144" height="120" rx="22" fill="url(#teamhero)" stroke="#eef0f6" filter="url(#soft)"/>
  <text x="296" y="82" font-size="22" font-weight="800" fill="#111827">Team</text>
  <text x="296" y="106" font-size="12.5" fill="#6b7280">구성원과 익명 설문으로 조직의 목소리를 결정에 반영합니다</text>
  <g>
    <circle cx="1200" cy="96" r="20" fill="#6d5df6"/><text x="1191" y="102" font-size="13" font-weight="800" fill="#ffffff">KD</text>
    <circle cx="1236" cy="96" r="20" fill="#8b7cff"/><text x="1228" y="102" font-size="13" font-weight="800" fill="#ffffff">SJ</text>
    <circle cx="1272" cy="96" r="20" fill="#c7bfff"/><text x="1263" y="102" font-size="13" font-weight="800" fill="#ffffff">MJ</text>
    <circle cx="1308" cy="96" r="20" fill="#f0eeff" stroke="#c7bfff"/><text x="1299" y="101" font-size="12" font-weight="800" fill="#6d5df6">+9</text>
  </g>

  <!-- Tabs -->
  <g font-size="12" font-weight="700">
    <rect x="264" y="180" width="84" height="32" rx="12" fill="#6d5df6"/><text x="285" y="201" fill="#ffffff">구성원</text>
    <rect x="356" y="180" width="98" height="32" rx="12" fill="#ffffff" stroke="#e5e8f0"/><text x="374" y="201" fill="#5c6474">익명 설문</text>
    <rect x="462" y="180" width="84" height="32" rx="12" fill="#ffffff" stroke="#e5e8f0"/><text x="482" y="201" fill="#5c6474">내 설문</text>
  </g>
  <rect x="1236" y="178" width="172" height="36" rx="13" fill="url(#violet)" filter="url(#soft)"/>
  <text x="1262" y="201" font-size="12" font-weight="800" fill="#ffffff">+ 구성원 초대</text>

  <!-- Member stat row -->
  <g filter="url(#soft)">
    <rect x="264" y="236" width="368" height="84" rx="18" fill="#ffffff" stroke="#eef0f6"/>
    <rect x="652" y="236" width="368" height="84" rx="18" fill="#ffffff" stroke="#eef0f6"/>
    <rect x="1040" y="236" width="368" height="84" rx="18" fill="#ffffff" stroke="#eef0f6"/>
  </g>
  <text x="288" y="264" font-size="11" font-weight="700" fill="#8a92a6">전체 구성원</text>
  <text x="288" y="298" font-size="24" font-weight="800" fill="#111827">12명</text>
  <text x="676" y="264" font-size="11" font-weight="700" fill="#8a92a6">진행 중 설문</text>
  <text x="676" y="298" font-size="24" font-weight="800" fill="#111827">2건</text>
  <text x="1064" y="264" font-size="11" font-weight="700" fill="#8a92a6">평균 응답률</text>
  <text x="1064" y="298" font-size="24" font-weight="800" fill="#6d5df6">78%</text>

  <!-- Member cards -->
  <g filter="url(#soft)">
    <rect x="264" y="344" width="368" height="120" rx="18" fill="#ffffff" stroke="#eef0f6"/>
    <rect x="652" y="344" width="368" height="120" rx="18" fill="#ffffff" stroke="#eef0f6"/>
    <rect x="1040" y="344" width="368" height="120" rx="18" fill="#ffffff" stroke="#eef0f6"/>
  </g>
  <circle cx="310" cy="388" r="24" fill="#6d5df6"/><text x="299" y="394" font-size="14" font-weight="800" fill="#ffffff">KD</text>
  <text x="348" y="384" font-size="13.5" font-weight="800" fill="#111827">김동현</text>
  <text x="348" y="402" font-size="11" fill="#8a92a6">kim@dreamwish.co.kr</text>
  <rect x="286" y="424" width="112" height="22" rx="11" fill="#f2f0ff"/><text x="300" y="439" font-size="10.5" font-weight="700" fill="#6d5df6">Organization Owner</text>

  <circle cx="698" cy="388" r="24" fill="#8b7cff"/><text x="688" y="394" font-size="14" font-weight="800" fill="#ffffff">SJ</text>
  <text x="736" y="384" font-size="13.5" font-weight="800" fill="#111827">박서준</text>
  <text x="736" y="402" font-size="11" fill="#8a92a6">park@dreamwish.co.kr</text>
  <rect x="674" y="424" width="60" height="22" rx="11" fill="#eef6ff"/><text x="687" y="439" font-size="10.5" font-weight="700" fill="#2f7bea">Admin</text>

  <circle cx="1086" cy="388" r="24" fill="#c7bfff"/><text x="1075" y="394" font-size="14" font-weight="800" fill="#ffffff">MJ</text>
  <text x="1124" y="384" font-size="13.5" font-weight="800" fill="#111827">이민정</text>
  <text x="1124" y="402" font-size="11" fill="#8a92a6">lee@dreamwish.co.kr</text>
  <rect x="1062" y="424" width="66" height="22" rx="11" fill="#f6f7fb"/><text x="1076" y="439" font-size="10.5" font-weight="700" fill="#5c6474">Member</text>

  <!-- Survey section -->
  <text x="264" y="512" font-size="14" font-weight="800" fill="#111827">진행 중인 익명 설문</text>
  <rect x="264" y="528" width="1144" height="130" rx="20" fill="#ffffff" stroke="#eef0f6" filter="url(#soft)"/>
  <rect x="292" y="552" width="8" height="82" rx="4" fill="url(#violet)"/>
  <text x="318" y="574" font-size="14" font-weight="800" fill="#111827">신제품 A 출시 결정 익명 의견수렴</text>
  <rect x="640" y="558" width="62" height="22" rx="11" fill="#eefdf3"/><text x="653" y="573" font-size="10.5" font-weight="700" fill="#16a34a">진행 중</text>
  <text x="318" y="598" font-size="11.5" fill="#6b7280">결정: 3분기 신제품 A 국내 출시 여부 · 마감 7월 28일 · 약 1분 · 5문항</text>
  <text x="318" y="628" font-size="11" font-weight="700" fill="#5c6474">응답률 78% (대상 12명 · 응답 9명)</text>
  <rect x="470" y="620" width="300" height="8" rx="4" fill="#f0f1f6"/>
  <rect x="470" y="620" width="234" height="8" rx="4" fill="url(#violet)"/>
  <rect x="1080" y="570" width="132" height="36" rx="12" fill="#ffffff" stroke="#e5e8f0"/>
  <text x="1104" y="593" font-size="11.5" font-weight="700" fill="#5c6474">결과 보기</text>
  <rect x="1224" y="570" width="132" height="36" rx="12" fill="url(#violet)"/>
  <text x="1248" y="593" font-size="11.5" font-weight="800" fill="#ffffff">설문 종료</text>

  <!-- Anonymity banner + AI aware note -->
  <rect x="264" y="682" width="560" height="88" rx="18" fill="#fbfaff" stroke="#e4defc"/>
  <circle cx="298" cy="712" r="12" fill="#f2f0ff"/><path d="M293 712 l4 4 l7 -8" stroke="#6d5df6" stroke-width="2.2" fill="none" stroke-linecap="round"/>
  <text x="320" y="708" font-size="12" font-weight="800" fill="#6d5df6">검증된 익명 설문</text>
  <text x="320" y="728" font-size="11" fill="#6b7280">응답은 계정과 분리 저장 · 관리자는 집계만 확인 · 최소 5명 미만 결과 비공개</text>
  <text x="320" y="746" font-size="11" fill="#6b7280">토큰은 해시로만 저장되고 응답 시각은 일 단위로만 기록됩니다</text>

  <rect x="848" y="682" width="560" height="88" rx="18" fill="#ffffff" stroke="#eef0f6" filter="url(#soft)"/>
  <rect x="874" y="704" width="30" height="30" rx="10" fill="url(#violet)"/>
  <text x="883" y="724" font-size="12" font-weight="800" fill="#ffffff">AI</text>
  <text x="918" y="712" font-size="12" font-weight="800" fill="#111827">AI Chat이 설문 결과를 인식합니다</text>
  <text x="918" y="732" font-size="11" fill="#6b7280">집계가 공개되면 Employee Signal이 최종 결론에 자동 반영되고</text>
  <text x="918" y="748" font-size="11" fill="#6b7280">반대 의견·소수 의견은 보고서에 그대로 보존됩니다</text>

  <!-- 내 설문 quick list -->
  <text x="264" y="808" font-size="14" font-weight="800" fill="#111827">내 설문</text>
  <rect x="264" y="820" width="1144" height="52" rx="16" fill="#ffffff" stroke="#eef0f6" filter="url(#soft)"/>
  <circle cx="296" cy="846" r="9" fill="none" stroke="#6d5df6" stroke-width="2"/>
  <text x="318" y="851" font-size="12" font-weight="700" fill="#111827">4분기 가격 정책 의견수렴</text>
  <text x="540" y="851" font-size="11" fill="#8a92a6">마감 8월 2일 · 약 2분 · 6문항</text>
  <rect x="1264" y="832" width="116" height="28" rx="12" fill="url(#violet)"/>
  <text x="1290" y="851" font-size="11" font-weight="800" fill="#ffffff">응답 시작</text>
</svg>
